<?xml version="1.0" standalone="no"?>
<!DOCTYPE svg PUBLIC "-//W3C//DTD SVG 1.1//EN" "http://www.w3.org/Graphics/SVG/1.1/DTD/svg11.dtd" >
<svg xmlns="http://www.w3.org/2000/svg">
<metadata></metadata>
<defs>
<font id="electrolux_sansbold" horiz-adv-x="1290" >
<font-face units-per-em="2048" ascent="1653" descent="-395" />
<missing-glyph horiz-adv-x="708" />
<glyph unicode="&#xfb01;" horiz-adv-x="1142" d="M102 0v1042q0 120 30 193t93 121q40 31 94 47t92.5 19t96.5 3h256v-254h-227q-72 0 -105 -25.5t-33 -84.5v-29h641v-1032h-307v754h-332v-754h-299z" />
<glyph unicode="&#xfb02;" horiz-adv-x="1206" d="M100 0v1042q0 120 30 193t93 121q40 31 94.5 47t93.5 19t97 3h123v-256h-90q-75 0 -109.5 -24.5t-34.5 -83.5v-29h209v-278h-209v-754h-297zM797 0v1427h309v-1427h-309z" />
<glyph unicode="&#xfb03;" horiz-adv-x="1769" d="M100 0v1042q0 120 30 193t93 121q40 31 94.5 47t93.5 19t97 3h108v-256h-79q-74 0 -108 -24.5t-34 -83.5v-29h350v10q0 121 30 194t93 120q40 31 94.5 47t93.5 19t97 3h254v-256h-225q-74 0 -109 -24.5t-35 -83.5v-29h643v-1032h-307v754h-334v-754h-297v754h-344v-754 h-299z" />
<glyph unicode="&#xfb04;" horiz-adv-x="1812" d="M100 0v1042q0 120 30 193t93 121q40 31 94.5 47t93.5 19t97 3h108v-256h-79q-74 0 -108 -24.5t-34 -83.5v-29h348v10q0 121 30 194t93 120q40 31 94.5 47t93.5 19t97 3h123v-256h-94q-75 0 -109.5 -24.5t-34.5 -83.5v-29h213v-278h-209v-754h-297v754h-344v-754h-299z M1419 0v1427h293v-1427h-293z" />
<glyph horiz-adv-x="0" />
<glyph horiz-adv-x="0" />
<glyph horiz-adv-x="682" />
<glyph unicode="&#xd;" horiz-adv-x="0" />
<glyph unicode=" "  horiz-adv-x="708" />
<glyph unicode="&#x09;" horiz-adv-x="708" />
<glyph unicode="&#xa0;" horiz-adv-x="708" />
<glyph unicode="!" horiz-adv-x="600" d="M117 1427h368l-49 -1036h-270zM133 145q0 68 50 117t118 49q69 0 118.5 -48.5t49.5 -117.5q0 -71 -49.5 -120.5t-118.5 -49.5q-68 0 -118 49.5t-50 120.5z" />
<glyph unicode="&#x22;" horiz-adv-x="819" d="M76 1427h282l-41 -516h-200zM465 1427h283l-39 -516h-203z" />
<glyph unicode="#" horiz-adv-x="1343" d="M66 356v260h241l45 179h-178v260h242l47 188h254l-47 -188h186l47 188h254l-47 -188h174v-260h-237l-46 -179h175v-260h-238l-49 -194h-254l49 194h-188l-47 -194h-254l49 194h-178zM561 616h184l48 179h-187z" />
<glyph unicode="$" horiz-adv-x="1206" d="M23 293l235 164q44 -78 121 -130t176 -67v348q-79 25 -137.5 50t-118 62.5t-97 82t-61.5 107.5t-24 139q0 117 60 207t157 138t217 56v203h154v-211q237 -36 378 -221l-215 -164q-60 83 -168 106v-301q131 -41 219.5 -87.5t140 -102.5t73.5 -118t22 -142 q0 -179 -114 -295.5t-336 -134.5v-199h-154v199q-194 13 -326.5 98.5t-201.5 212.5zM422 1053q0 -54 31 -85t102 -57v260q-63 -7 -98 -38.5t-35 -79.5zM700 264q77 8 111.5 48t34.5 91q0 56 -36 90.5t-110 65.5v-295z" />
<glyph unicode="%" horiz-adv-x="1568" d="M57 1137q0 132 95.5 223.5t230.5 91.5q137 0 232.5 -91.5t95.5 -223.5t-95.5 -224t-232.5 -92q-135 0 -230.5 92t-95.5 224zM158 0l975 1427h278l-973 -1427h-280zM285 1137q0 -46 28.5 -76.5t69.5 -30.5q42 0 71 31t29 76q0 44 -29.5 75t-70.5 31t-69.5 -31t-28.5 -75z M862 291q0 131 96 223t232 92q135 0 229 -91.5t94 -223.5t-94 -224t-229 -92t-231.5 92t-96.5 224zM1090 291q0 -46 28.5 -76.5t71.5 -30.5q42 0 71 31t29 76q0 44 -29.5 75t-70.5 31q-43 0 -71.5 -31t-28.5 -75z" />
<glyph unicode="&#x26;" horiz-adv-x="1705" d="M74 457q0 304 284 444q-34 73 -34 148q0 181 126.5 296t333.5 115q180 0 294 -96.5t114 -239.5q0 -72 -37 -118h506v-279h-258v-86q0 -206 -115 -360l275 -281h-392l-90 92q-164 -123 -446 -123q-251 0 -406 135.5t-155 352.5zM385 457q0 -97 66.5 -153t183.5 -56 q138 0 203 57q-101 106 -170 177t-86.5 88.5t-31 32t-38.5 44.5q-127 -62 -127 -190zM618 1040q0 -99 107 -206l338 -349q51 56 51 201v41h-272v191q42 9 71 49t29 96q0 64 -46.5 107.5t-115.5 43.5q-62 0 -112 -45.5t-50 -128.5z" />
<glyph unicode="'" horiz-adv-x="432" d="M76 1427h282l-41 -516h-200z" />
<glyph unicode="(" horiz-adv-x="677" d="M80 633q0 281 120.5 530.5t352.5 450.5l137 -152q-168 -181 -252 -377.5t-84 -451.5q0 -264 83 -458t253 -380l-137 -147q-235 196 -354 447.5t-119 537.5z" />
<glyph unicode=")" horiz-adv-x="677" d="M-10 -205q111 124 181 240t111.5 267.5t41.5 330.5q0 254 -84 450.5t-250 378.5l137 152q230 -202 349.5 -451.5t119.5 -529.5q0 -286 -118.5 -537.5t-350.5 -447.5z" />
<glyph unicode="*" horiz-adv-x="772" d="M53 1122l62 187l192 -92l-24 210h206l-22 -208l192 90l62 -187l-205 -47l143 -157l-167 -119l-107 180l-104 -180l-164 119l143 157z" />
<glyph unicode="+" horiz-adv-x="1081" d="M92 582v264h303v323h293v-323h305v-264h-305v-322h-293v322h-303z" />
<glyph unicode="," horiz-adv-x="503" d="M-51 -262l180 489h303l-258 -489h-225z" />
<glyph unicode="-" horiz-adv-x="901" d="M84 432v281h733v-281h-733z" />
<glyph unicode="." horiz-adv-x="446" d="M55 147q0 70 51 119t119 49t118 -49t50 -119q0 -68 -50 -116.5t-118 -48.5t-119 48.5t-51 116.5z" />
<glyph unicode="/" horiz-adv-x="937" d="M-41 -279l670 1760h276l-672 -1760h-274z" />
<glyph unicode="0" horiz-adv-x="1236" d="M84 715q0 231 6 297q22 188 172.5 313t355.5 125t356 -125t173 -313q6 -66 6 -297q0 -233 -6 -299q-22 -188 -173 -313.5t-356 -125.5t-355.5 125.5t-172.5 313.5q-6 66 -6 299zM401 715q0 -207 7 -264q8 -80 67 -132.5t143 -52.5t143.5 52.5t67.5 132.5q7 57 7 264 q0 193 -5 254q-9 84 -69 138t-144 54t-143.5 -54t-68.5 -138q-5 -61 -5 -254z" />
<glyph unicode="1" horiz-adv-x="743" d="M72 1139v288h526v-1427h-317v1139h-209z" />
<glyph unicode="2" horiz-adv-x="1161" d="M-10 0l663 817q74 95 74 176q0 70 -47 119t-115 49q-73 0 -124.5 -61.5t-51.5 -149.5h-319q0 103 39.5 195.5t106 159.5t158 106t191.5 39q130 0 241 -61t176 -166.5t65 -229.5q0 -77 -21.5 -149.5t-89.5 -153.5l-332 -401h483v-289h-1097z" />
<glyph unicode="3" horiz-adv-x="1167" d="M6 262l250 156q40 -72 110.5 -111t163.5 -39q108 0 180 59t72 154q0 99 -74.5 155t-209.5 56q-160 0 -256 -26l352 473h-459v288h973l-381 -505h2q159 -15 265 -140.5t106 -292.5q0 -219 -154 -364t-409 -145q-177 0 -317.5 76t-213.5 206z" />
<glyph unicode="4" horiz-adv-x="1275" d="M43 266l528 1161h338l-407 -878h332v264h311v-813h-311v266h-791z" />
<glyph unicode="5" horiz-adv-x="1150" d="M29 268l256 154q33 -70 102 -112t154 -42q94 0 160.5 61t66.5 152q0 100 -78.5 156.5t-200.5 56.5q-208 0 -356 -63l133 796h721v-288h-485l-31 -187q47 15 109 15q138 0 254.5 -65.5t183.5 -177.5t67 -243q0 -102 -43 -194.5t-116 -159.5t-173.5 -107t-211.5 -40 q-169 0 -306 78.5t-206 209.5z" />
<glyph unicode="6" horiz-adv-x="1185" d="M53 502q0 61 14.5 118.5t49.5 124.5t64.5 114.5t88.5 135.5q19 28 49 74.5t94 143.5t104 158.5t36 55.5h348l-293 -438q12 6 54 6q61 0 125.5 -20t127 -61.5t111.5 -98.5t79 -137.5t30 -171.5q0 -141 -72.5 -260t-197.5 -187.5t-273 -68.5q-146 0 -270 68.5t-196.5 186.5 t-72.5 257zM371 502q0 -94 64.5 -158.5t156.5 -64.5t158.5 66.5t66.5 156.5t-66.5 155.5t-158.5 65.5q-95 0 -158 -64t-63 -157z" />
<glyph unicode="7" horiz-adv-x="1142" d="M57 1139v288h1090l-658 -1427h-327l530 1139h-635z" />
<glyph unicode="8" horiz-adv-x="1193" d="M68 469q0 115 54.5 207t145.5 145q-106 86 -106 223q0 167 128.5 287.5t307.5 120.5q178 0 306 -120.5t128 -287.5q0 -139 -104 -223q92 -51 147 -143.5t55 -208.5q0 -132 -71 -244.5t-193.5 -178.5t-267.5 -66q-219 0 -374.5 144t-155.5 345zM387 469q0 -83 62 -142 t149 -59t151 60t64 141t-64 141t-151 60q-88 0 -149.5 -59t-61.5 -142zM453 1044q0 -58 42.5 -99.5t102.5 -41.5q61 0 103 41t42 100q0 56 -42 95t-103 39q-60 0 -102.5 -39.5t-42.5 -94.5z" />
<glyph unicode="9" horiz-adv-x="1193" d="M59 936q0 139 73 257t197.5 186.5t270.5 68.5q149 0 272 -68.5t193 -185t70 -254.5q0 -61 -14 -119.5t-47 -123.5t-65 -117t-89 -136l-295 -444h-349l310 457q-16 -8 -60 -8q-58 0 -121.5 19.5t-125 60.5t-110.5 97.5t-79.5 137t-30.5 172.5zM379 938q0 -91 64.5 -157 t156.5 -66q97 0 160 64.5t63 158.5q0 92 -66 156.5t-157 64.5q-92 0 -156.5 -65t-64.5 -156z" />
<glyph unicode=":" horiz-adv-x="473" d="M70 246q0 69 50.5 118.5t119.5 49.5q68 0 118 -49.5t50 -118.5q0 -68 -50 -117t-118 -49q-69 0 -119.5 48.5t-50.5 117.5zM70 793q0 69 50.5 117t119.5 48q68 0 118 -48.5t50 -116.5q0 -70 -50 -120t-118 -50q-69 0 -119.5 50t-50.5 120z" />
<glyph unicode=";" horiz-adv-x="528" d="M-51 -262l180 489h303l-258 -489h-225zM100 788q0 70 50 118t120 48q68 0 118 -48t50 -118q0 -69 -50 -118t-118 -49q-69 0 -119.5 49t-50.5 118z" />
<glyph unicode="&#x3c;" horiz-adv-x="968" d="M20 729l846 553v-317l-368 -236l368 -237v-316z" />
<glyph unicode="=" horiz-adv-x="1122" d="M98 360v265h928v-265h-928zM98 809v264h928v-264h-928z" />
<glyph unicode="&#x3e;" horiz-adv-x="968" d="M104 176v316l367 237l-367 236v317l844 -553z" />
<glyph unicode="?" horiz-adv-x="903" d="M90 1020v323q144 109 334 109t300 -95t110 -231q0 -127 -56.5 -205.5t-204.5 -152.5q-32 -16 -49.5 -26t-36 -24t-26.5 -28.5t-8 -32.5q0 -63 86 -63q89 0 153 39v-238q-94 -43 -209 -43q-147 0 -238 83.5t-91 217.5q0 180 219 305q7 4 26 14.5t25.5 14t22 12.5t21 14 t16.5 13.5t15 15.5t9.5 16t7.5 19t2 21q0 24 -26 45.5t-84 21.5q-166 0 -318 -145zM276 125q0 68 49 115t117 47t116 -47t48 -115q0 -66 -48 -112t-116 -46t-117 46t-49 112z" />
<glyph unicode="@" horiz-adv-x="1652" d="M72 598q0 157 62.5 297.5t166 238.5t241.5 155t285 57q156 0 296.5 -57.5t241 -154t159.5 -228t59 -275.5q0 -217 -100 -336t-275 -119q-94 0 -161 44t-89 118q-26 -37 -74.5 -57.5t-107.5 -20.5q-135 0 -223 98t-88 240q0 140 88.5 239t222.5 99q117 0 162 -74v62h227 v-457q0 -45 19 -66.5t45 -21.5q52 0 86.5 58.5t34.5 193.5q0 134 -70.5 247t-191 178.5t-261.5 65.5t-261 -70t-189.5 -190.5t-69.5 -263.5q0 -106 41.5 -203t111.5 -166.5t166.5 -111t202.5 -41.5q113 0 218 51l92 -201q-146 -73 -310 -73q-130 0 -248.5 39.5t-210 110 t-159.5 164t-103.5 204.5t-35.5 227zM702 598q0 -51 34.5 -86t86.5 -35q51 0 86 35t35 86q0 52 -35 86.5t-86 34.5q-53 0 -87 -34.5t-34 -86.5z" />
<glyph unicode="A" horiz-adv-x="1540" d="M27 0l745 1509l746 -1509h-340l-109 225h-596l-111 -225h-335zM592 496h358l-180 370z" />
<glyph unicode="B" horiz-adv-x="1294" d="M143 0v1427h570q172 0 289.5 -103.5t117.5 -260.5q0 -103 -48 -179.5t-134 -107.5q138 -24 212.5 -120.5t74.5 -233.5q0 -182 -123.5 -302t-310.5 -120h-648zM455 274h272q79 0 130.5 49.5t51.5 122.5t-51 120.5t-133 47.5h-270v-340zM455 858h207q67 0 109 43t42 109 q0 62 -42 103.5t-107 41.5h-209v-297z" />
<glyph unicode="C" horiz-adv-x="1466" d="M76 713q0 157 61 294.5t164.5 234t245.5 152.5t299 56q170 0 319.5 -70.5t257.5 -195.5l-217 -185q-69 76 -162.5 119t-197.5 43q-191 0 -321 -128.5t-130 -319.5t130 -319t321 -128q105 0 199.5 43.5t162.5 120.5l217 -184q-108 -127 -258 -198t-321 -71 q-157 0 -299 55.5t-245.5 152t-164.5 234.5t-61 294z" />
<glyph unicode="D" horiz-adv-x="1519" d="M143 0v1427h543q183 0 328 -53.5t238.5 -149.5t142.5 -226.5t49 -286.5q0 -158 -48.5 -288t-142 -224.5t-238 -146.5t-327.5 -52h-545zM461 289h207q105 0 185.5 22t131 59t82.5 92t44.5 115t12.5 134q0 76 -12.5 137t-44.5 116.5t-83 93t-131.5 59.5t-186.5 22h-205 v-850z" />
<glyph unicode="E" horiz-adv-x="1216" d="M129 473v954h979v-288h-662v-267h619v-282h-619v-103q0 -58 19 -99.5t50 -61.5t61 -28.5t63 -8.5h483v-289h-493q-249 0 -374.5 122t-125.5 351z" />
<glyph unicode="F" horiz-adv-x="1167" d="M143 0v1427h944v-288h-626v-291h571v-283h-571v-565h-318z" />
<glyph unicode="G" horiz-adv-x="1544" d="M76 713q0 157 61 294.5t164.5 234t245.5 152.5t299 56q162 0 304 -60.5t249 -170.5l-215 -189q-64 64 -152 97.5t-186 33.5q-191 0 -321 -128.5t-130 -319.5t130 -319t321 -128q186 0 309 111v190h-375v281h672v-580q-101 -134 -260.5 -212.5t-345.5 -78.5 q-157 0 -299 55.5t-245.5 152t-164.5 234.5t-61 294z" />
<glyph unicode="H" horiz-adv-x="1538" d="M143 0v1427h318v-528h616v528h318v-1427h-318v608h-616v-608h-318z" />
<glyph unicode="I" horiz-adv-x="620" d="M152 0v1427h317v-1427h-317z" />
<glyph unicode="J" horiz-adv-x="755" d="M23 0v289h122q56 0 92.5 16t53.5 47.5t22.5 64t5.5 79.5v931h318v-911q0 -64 -2.5 -110t-13 -103.5t-29 -98t-52 -81.5t-80 -66t-115.5 -41t-157 -16h-165z" />
<glyph unicode="K" horiz-adv-x="1415" d="M143 0v1427h318v-634l549 634h379l-547 -632l563 -795h-375l-405 569l-164 -182v-387h-318z" />
<glyph unicode="L" horiz-adv-x="1073" d="M143 0v1427h318v-1138h557v-289h-875z" />
<glyph unicode="M" horiz-adv-x="1794" d="M143 0v1479l756 -820l754 820v-1479h-305v721l-449 -502l-450 502v-721h-306z" />
<glyph unicode="N" horiz-adv-x="1556" d="M143 0v1483l959 -862v806h313v-1482l-958 860v-805h-314z" />
<glyph unicode="O" horiz-adv-x="1675" d="M76 711q0 152 60 289.5t162.5 236t244 156t297.5 57.5t297.5 -57.5t243 -156t161.5 -235.5t60 -290t-60 -290.5t-161.5 -236t-243 -156t-297.5 -57.5q-209 0 -384.5 97.5t-277.5 268t-102 374.5zM395 711q0 -191 128 -321t317 -130q185 0 313.5 131.5t128.5 319.5 q0 186 -128 318t-314 132q-188 0 -316.5 -131.5t-128.5 -318.5z" />
<glyph unicode="P" d="M143 0v1427h605q83 0 167 -32.5t155.5 -91t116 -153t44.5 -206.5q0 -105 -42.5 -197.5t-111 -154.5t-154.5 -97.5t-175 -35.5h-287v-459h-318zM461 748h268q26 0 54.5 9.5t58.5 29.5t49.5 61t19.5 96q0 56 -19.5 96.5t-49.5 60.5t-58.5 29t-54.5 9h-268v-391z" />
<glyph unicode="Q" horiz-adv-x="1675" d="M76 713q0 203 103.5 373t280 267t384.5 97q207 0 381 -97t275.5 -267t101.5 -373q0 -262 -179 -461l131 -152l-213 -180l-137 160q-148 -98 -360 -98q-208 0 -384.5 96t-280 264.5t-103.5 370.5zM395 713q0 -187 130 -315t319 -128q92 0 157 33l-176 203l213 182 l181 -211q63 94 63 236q0 185 -128 316.5t-310 131.5q-188 0 -318.5 -130.5t-130.5 -317.5z" />
<glyph unicode="R" horiz-adv-x="1351" d="M143 0v1427h600q98 0 188 -36.5t156 -99t105 -150t39 -185.5q0 -138 -69 -246.5t-185 -158.5l348 -551h-360l-295 473h-4h-207v-473h-316zM459 754h250q92 0 147 53.5t55 144.5q0 81 -50.5 134t-125.5 53h-276v-385z" />
<glyph unicode="S" horiz-adv-x="1196" d="M20 293l232 160q53 -88 145 -138.5t213 -50.5q108 0 159.5 40.5t51.5 98.5q0 26 -8.5 48t-29 40t-40.5 31.5t-57.5 28.5t-65.5 25.5t-77.5 27.5t-81.5 29q-81 29 -141 64t-107.5 84t-71.5 115.5t-24 150.5q0 124 67 217t174 139.5t236 46.5q309 0 475 -233l-211 -162 q-85 110 -256 110q-78 0 -125 -32t-47 -82q0 -29 10.5 -51t26 -36.5t50 -30t65 -26t89 -31t105.5 -38.5q194 -74 278.5 -172.5t84.5 -251.5q0 -198 -134.5 -317.5t-396.5 -119.5q-219 0 -367.5 88t-220.5 228z" />
<glyph unicode="T" horiz-adv-x="1144" d="M31 1139v288h1085v-288h-381v-1139h-317v1139h-387z" />
<glyph unicode="U" horiz-adv-x="1472" d="M129 580v847h317v-815q0 -346 293 -346q136 0 212.5 83t76.5 263v815h318v-847q0 -148 -48 -265t-131.5 -189.5t-192.5 -110.5t-235 -38q-127 0 -236.5 38t-193.5 110.5t-132 189.5t-48 265z" />
<glyph unicode="V" horiz-adv-x="1525" d="M29 1427h338l397 -833l399 833h338l-737 -1497z" />
<glyph unicode="W" horiz-adv-x="2015" d="M39 1427h323l263 -749l385 760l385 -760l262 749h321l-520 -1484l-448 870l-449 -870z" />
<glyph unicode="X" horiz-adv-x="1398" d="M35 0l471 733l-447 694h355l288 -452l285 452h352l-442 -696l471 -731h-350l-318 494l-317 -494h-348z" />
<glyph unicode="Y" horiz-adv-x="1417" d="M27 1427h346l338 -591l340 591h344l-525 -895v-532h-317v532z" />
<glyph unicode="Z" horiz-adv-x="1341" d="M27 0l749 1139h-606v288h1135l-744 -1138h713v-289h-1247z" />
<glyph unicode="[" horiz-adv-x="778" d="M137 -477v1904h633v-266h-338v-1372h338v-266h-633z" />
<glyph unicode="\" horiz-adv-x="937" d="M27 1481h276l672 -1760h-275z" />
<glyph unicode="]" horiz-adv-x="778" d="M12 -211h336v1372h-336v266h631v-1904h-631v266z" />
<glyph unicode="^" horiz-adv-x="1095" d="M27 717l522 766l522 -766h-299l-223 336l-225 -336h-297z" />
<glyph unicode="_" horiz-adv-x="872" d="M0 -121h877v-237h-877v237z" />
<glyph unicode="`" horiz-adv-x="1071" d="M270 1427h332l103 -297h-230z" />
<glyph unicode="a" d="M61 516q0 147 66.5 269.5t184 194t261.5 71.5q117 0 201.5 -43t106.5 -111v135h307v-1032h-307v135q-22 -67 -106.5 -110t-201.5 -43q-144 0 -261.5 71t-184 193t-66.5 270zM371 516q0 -108 75 -182t185 -74q111 0 189.5 74.5t78.5 181.5t-78.5 181.5t-189.5 74.5 q-110 0 -185 -74t-75 -182z" />
<glyph unicode="b" d="M106 0v1427h310v-530q22 68 105.5 111t199.5 43q144 0 261.5 -71.5t184 -194t66.5 -269.5q0 -148 -66.5 -270t-184 -193t-261.5 -71q-115 0 -199 43t-106 110v-135h-310zM397 516q0 -107 78 -181.5t191 -74.5q109 0 184.5 74.5t75.5 181.5t-75.5 181.5t-184.5 74.5 q-113 0 -191 -74.5t-78 -181.5z" />
<glyph unicode="c" horiz-adv-x="1099" d="M61 518q0 154 77 280t208 196.5t287 70.5q253 0 430 -193l-195 -192q-50 54 -104.5 80t-130.5 26q-111 0 -186.5 -76t-75.5 -192q0 -115 75.5 -190.5t186.5 -75.5q76 0 130.5 26t104.5 80l195 -192q-177 -193 -430 -193q-156 0 -287 70t-208 195.5t-77 279.5z" />
<glyph unicode="d" d="M61 516q0 147 66.5 269.5t184 194t261.5 71.5q117 0 201.5 -43t106.5 -111v530h307v-1427h-307v135q-22 -67 -106.5 -110t-201.5 -43q-144 0 -261.5 71t-184 193t-66.5 270zM371 516q0 -108 75 -182t185 -74q111 0 189.5 74.5t78.5 181.5t-78.5 181.5t-189.5 74.5 q-110 0 -185 -74t-75 -182z" />
<glyph unicode="e" horiz-adv-x="1204" d="M61 510v8q0 244 158.5 392.5t403.5 148.5q156 0 278 -70.5t187 -189.5t65 -264q0 -52 -4 -99h-778q5 -92 78 -146t194 -54q78 0 137.5 24t112.5 76l180 -172q-184 -189 -444 -189q-253 0 -410.5 146.5t-157.5 388.5zM375 635h469q0 70 -65 120t-156 50q-100 0 -171 -49 t-77 -121z" />
<glyph unicode="f" horiz-adv-x="655" d="M100 0v1042q0 120 30 193t93 121q40 31 94.5 47t93.5 19t97 3h123v-256h-90q-75 0 -109.5 -24.5t-34.5 -83.5v-29h209v-278h-209v-754h-297z" />
<glyph unicode="g" horiz-adv-x="1286" d="M61 516q0 147 66.5 269.5t184 194t261.5 71.5q117 0 201.5 -43t106.5 -111v135h307v-950q0 -85 -18.5 -161t-61.5 -145t-106.5 -118.5t-160 -79t-216.5 -29.5q-187 0 -328 71t-201 185l248 136q34 -55 102.5 -88t163.5 -33q279 0 279 254v45q-33 -55 -118 -90t-198 -35 q-144 0 -261.5 69t-184 188.5t-66.5 264.5zM371 516q0 -106 75 -179t185 -73q111 0 189.5 73.5t78.5 178.5q0 107 -78.5 181.5t-189.5 74.5q-110 0 -185 -74t-75 -182z" />
<glyph unicode="h" horiz-adv-x="1183" d="M106 0v1427h310v-520q31 67 108.5 107.5t177.5 40.5q184 0 284.5 -113.5t100.5 -314.5v-627h-309v590q0 90 -44.5 141t-129.5 51q-83 0 -135.5 -56.5t-52.5 -145.5v-580h-310z" />
<glyph unicode="i" horiz-adv-x="518" d="M84 1292q0 73 51.5 123.5t122.5 50.5q73 0 124.5 -50.5t51.5 -123.5q0 -72 -52 -123t-124 -51q-71 0 -122.5 51t-51.5 123zM104 0v1032h310v-1032h-310z" />
<glyph unicode="j" horiz-adv-x="509" d="M-84 -121h68q62 0 90 30.5t28 102.5v1020h310v-1057q0 -67 -12 -121.5t-32 -92.5t-49.5 -66t-60.5 -44.5t-68.5 -26.5t-70 -13.5t-68.5 -3.5h-135v272zM82 1292q0 71 51.5 121.5t122.5 50.5q72 0 124 -50t52 -122t-52 -124t-124 -52q-71 0 -122.5 52t-51.5 124z" />
<glyph unicode="k" horiz-adv-x="1132" d="M106 0v1427h310v-786l338 391h356l-412 -467l447 -565h-346l-299 379l-84 -90v-289h-310z" />
<glyph unicode="l" horiz-adv-x="518" d="M106 0v1427h310v-1427h-310z" />
<glyph unicode="m" horiz-adv-x="1767" d="M106 0v1032h310v-129q30 68 101.5 110t164.5 42q208 0 281 -164q86 164 344 164q177 0 272.5 -113.5t95.5 -314.5v-627h-309v590q0 89 -39 140.5t-113 51.5q-75 0 -122.5 -56.5t-47.5 -145.5v-580h-309v590q0 90 -38.5 141t-112.5 51t-121 -56.5t-47 -145.5v-580h-310z " />
<glyph unicode="n" horiz-adv-x="1204" d="M106 0v1032h310v-129q33 68 113.5 110t185.5 42q190 0 293.5 -113.5t103.5 -314.5v-627h-309v590q0 89 -48 140.5t-139 51.5q-88 0 -144 -56.5t-56 -145.5v-580h-310z" />
<glyph unicode="o" horiz-adv-x="1269" d="M61 516q0 150 77 276t209.5 198.5t289.5 72.5q156 0 288 -72.5t208.5 -198.5t76.5 -276t-76.5 -276t-208.5 -198.5t-288 -72.5q-157 0 -289.5 72.5t-209.5 198.5t-77 276zM371 516q0 -113 76.5 -190.5t189.5 -77.5q111 0 188.5 78t77.5 190q0 110 -78 189t-188 79 q-113 0 -189.5 -78.5t-76.5 -189.5z" />
<glyph unicode="p" d="M106 -395v1427h310v-135q22 67 106 110.5t199 43.5q144 0 261.5 -71t184 -193.5t66.5 -270.5q0 -224 -147 -379t-365 -155q-116 0 -199.5 42.5t-105.5 110.5v-530h-310zM397 516q0 -107 78 -181.5t191 -74.5q109 0 184.5 74.5t75.5 181.5t-75.5 181.5t-184.5 74.5 q-113 0 -191 -74.5t-78 -181.5z" />
<glyph unicode="q" horiz-adv-x="1282" d="M61 516q0 148 66.5 270.5t184 193.5t261.5 71q117 0 201.5 -43.5t106.5 -110.5v135h307v-1427h-307v530q-22 -68 -106.5 -110.5t-201.5 -42.5q-218 0 -365 155t-147 379zM371 516q0 -108 75 -182t185 -74q111 0 189.5 74.5t78.5 181.5t-78.5 181.5t-189.5 74.5 q-110 0 -185 -74t-75 -182z" />
<glyph unicode="r" horiz-adv-x="845" d="M106 0v1032h310v-141q35 78 114 121t185 43q32 0 80 -6v-289q-48 10 -103 10q-130 0 -203 -71t-73 -197v-502h-310z" />
<glyph unicode="s" horiz-adv-x="978" d="M27 154l178 192q42 -51 117.5 -82t164.5 -31q77 0 115.5 22t38.5 60q0 20 -15 35t-46 26t-63.5 19.5t-84 22t-90.5 26.5q-115 39 -176.5 107.5t-61.5 179.5q0 80 33.5 144.5t90.5 105t128.5 61.5t151.5 21q219 0 356 -133l-147 -203q-84 76 -217 76q-49 0 -75 -18.5 t-26 -45.5q0 -20 9 -32.5t34 -22.5t53 -17t82 -22t105 -33q135 -46 194.5 -118.5t59.5 -174.5q0 -157 -115 -252.5t-342 -95.5q-296 0 -452 183z" />
<glyph unicode="t" horiz-adv-x="661" d="M100 430v997h299v-395h230v-278h-230v-277q0 -107 46 -152.5t147 -45.5h16v-279h-90q-43 0 -80 3.5t-80.5 15t-79 30.5t-69.5 52t-57.5 77t-37.5 108.5t-14 143.5z" />
<glyph unicode="u" horiz-adv-x="1187" d="M96 416v616h312v-590q0 -97 52 -142.5t134 -45.5t134 45.5t52 142.5v590h312v-616q0 -110 -40.5 -196.5t-110 -140t-158 -81t-189.5 -27.5t-189.5 27.5t-158 81t-110 140t-40.5 196.5z" />
<glyph unicode="v" horiz-adv-x="1173" d="M-6 1032h323l273 -516l274 516h320l-594 -1093z" />
<glyph unicode="w" horiz-adv-x="1540" d="M10 1032h303l183 -491l276 485l275 -485l184 491h301l-424 -1093l-336 591l-338 -591z" />
<glyph unicode="x" horiz-adv-x="1142" d="M10 0l391 543l-354 489h336l190 -270l191 270h336l-355 -489l392 -543h-334l-230 319l-229 -319h-334z" />
<glyph unicode="y" horiz-adv-x="1200" d="M20 1032h316l278 -715l254 715h314l-459 -1196q-52 -130 -119 -190q-103 -90 -278 -90h-138v264h117q64 0 98 22q24 16 43 64l17 45z" />
<glyph unicode="z" horiz-adv-x="1097" d="M-14 0l577 762h-477v270h1001l-573 -762h545v-270h-1073z" />
<glyph unicode="{" horiz-adv-x="759" d="M51 459v145q47 2 92 25q82 40 82 153v383q0 114 69.5 188t176.5 74h209v-247h-72q-54 0 -77 -31t-23 -76v-276q0 -145 -92 -211q-55 -38 -109 -56q55 -15 109 -53q92 -66 92 -211v-276q0 -45 23 -76t77 -31h72v-248h-209q-107 0 -176.5 74.5t-69.5 188.5v383 q0 113 -82 153q-20 10 -43 16.5t-36 7.5z" />
<glyph unicode="|" horiz-adv-x="583" d="M145 -55v1538h293v-1538h-293z" />
<glyph unicode="}" horiz-adv-x="759" d="M80 -117h72q52 0 76 31.5t24 75.5v276q0 147 92 211q54 38 109 53q-54 18 -109 56q-92 64 -92 211v276q0 44 -24 75.5t-76 31.5h-72v247h209q107 0 176.5 -74t69.5 -188v-383q0 -113 81 -153q20 -10 43 -16.5t37 -7.5l13 -1v-145q-48 -2 -93 -25q-81 -40 -81 -153v-383 q0 -114 -69.5 -188.5t-176.5 -74.5h-209v248z" />
<glyph unicode="~" horiz-adv-x="966" d="M55 596q18 133 89 215t184 82q60 0 117.5 -21.5t108 -43t91.5 -21.5q38 0 61.5 19.5t36.5 64.5l168 -27q-38 -307 -276 -307q-61 0 -119.5 21.5t-109 43t-91.5 21.5q-77 0 -90 -72z" />
<glyph unicode="&#xa1;" horiz-adv-x="600" d="M117 -401l49 1038h270l49 -1038h-368zM133 885q0 68 50 117t118 49q69 0 118.5 -48.5t49.5 -117.5q0 -70 -49.5 -119t-118.5 -49q-68 0 -118 49t-50 119z" />
<glyph unicode="&#xa2;" horiz-adv-x="1105" d="M61 721q0 124 49 229t129.5 173.5t183 106.5t210.5 38h14l31 159h166l-35 -186q145 -44 252 -160l-187 -184q-51 54 -116 78l-107 -526l6 -1q6 -2 11 -2q117 10 206 101l187 -187q-176 -184 -428 -184q-29 0 -33 2l-35 -178h-168l43 207q-168 55 -273.5 193.5 t-105.5 320.5zM352 721q0 -81 39.5 -145.5t106.5 -98.5l100 518h-2q-105 -12 -174.5 -89t-69.5 -185z" />
<glyph unicode="&#xa3;" horiz-adv-x="1232" d="M66 0v223h18q97 0 166.5 21.5t104.5 57.5t50 74.5t15 82.5q0 37 -39 121h-231v211h116q-78 141 -78 241q0 177 136.5 301.5t332.5 124.5q187 0 318 -128.5t131 -311.5h-270q0 61 -52 106t-125 45q-69 0 -119.5 -49t-50.5 -116q0 -74 93 -213h336v-211h-222 q31 -76 31 -121q0 -73 -25.5 -123t-64.5 -76h537v-260h-1108z" />
<glyph unicode="&#xa4;" horiz-adv-x="1374" d="M80 258l180 162q-80 119 -80 262t80 262l-180 162l188 188l166 -190q115 70 256 70q138 0 256 -70l166 190l188 -188l-182 -160q80 -122 80 -264q0 -143 -80 -262l182 -162l-188 -186q-148 161 -168 186q-117 -68 -254 -68q-138 0 -258 68l-164 -186zM463 682 q0 -94 66 -161.5t161 -67.5q94 0 161 67.5t67 161.5t-67 161.5t-161 67.5q-95 0 -161 -67.5t-66 -161.5z" />
<glyph unicode="&#xa5;" horiz-adv-x="1406" d="M20 1427h342l345 -593l342 593h342l-308 -522h215v-213h-340l-94 -160h434v-215h-434v-317h-315v317h-434v215h434l-96 160h-338v213h213z" />
<glyph unicode="&#xa6;" horiz-adv-x="583" d="M145 0v602h293v-602h-293zM145 850v577h293v-577h-293z" />
<glyph unicode="&#xa7;" horiz-adv-x="1146" d="M61 565q0 176 146 279q-88 91 -88 221q0 118 64 209t165 137.5t219 46.5q109 0 197 -33.5t144 -92t86 -135t30 -163.5h-297q-3 35 -11 61.5t-24.5 52.5t-47 40t-73.5 14q-59 0 -103 -35t-44 -92q0 -48 23.5 -79.5t74.5 -63.5q31 -19 78.5 -40.5t108.5 -47t84 -35.5 q136 -60 210 -140.5t74 -201.5q0 -180 -145 -279q88 -91 88 -221q0 -118 -64.5 -209.5t-166 -137.5t-218.5 -46q-109 0 -197 33.5t-144 91.5t-85.5 134.5t-29.5 164.5h297q3 -35 11 -61.5t24 -52.5t46.5 -40t73.5 -14q59 0 103.5 35t44.5 92q0 44 -23.5 73t-75.5 64 q-43 33 -153 79.5t-115 49.5q-138 57 -212.5 138.5t-74.5 203.5zM360 567q0 -22 9 -42.5t20.5 -36t36 -32.5t42 -27.5t52.5 -25.5t53.5 -22.5t57.5 -22.5q41 -16 57 -24q90 36 90 131q0 31 -17 58t-39 46t-64.5 40t-70.5 32.5t-81 30.5q-39 14 -55 24q-91 -37 -91 -129z" />
<glyph unicode="&#xa8;" horiz-adv-x="1116" d="M197 1278q0 60 42.5 101.5t104.5 41.5t105 -41t43 -102q0 -59 -43.5 -100t-104.5 -41t-104 41t-43 100zM623 1278q0 60 43.5 101.5t105.5 41.5q61 0 104.5 -41t43.5 -102q0 -58 -44 -99.5t-104 -41.5q-62 0 -105.5 41.5t-43.5 99.5z" />
<glyph unicode="&#xa9;" horiz-adv-x="1665" d="M74 713q0 146 57.5 283t156.5 241t242 166.5t304 62.5q198 0 371.5 -97t280.5 -271.5t107 -384.5q0 -147 -58 -285t-158 -241.5t-242 -165.5t-301 -62q-146 0 -284 57t-243.5 155t-169 240t-63.5 302zM285 713q0 -148 73.5 -273.5t200 -198.5t275.5 -73q148 0 274 73 t199 198.5t73 273.5q0 111 -43.5 211.5t-116.5 173t-174 115t-212 42.5q-112 0 -213.5 -42.5t-175 -115t-117 -173t-43.5 -211.5zM428 715q0 172 122 286.5t298 114.5q187 0 319 -149l-161 -158q-71 68 -158 68q-68 0 -117 -47t-49 -115q0 -71 48.5 -117.5t117.5 -46.5 q52 0 88 17.5t70 52.5l161 -158q-135 -152 -319 -152q-176 0 -298 115.5t-122 288.5z" />
<glyph unicode="&#xaa;" horiz-adv-x="964" d="M92 868q0 111 80.5 173.5t257.5 80.5q33 4 50 6.5t38 7t30.5 11t16 17.5t6.5 26q0 55 -94 55q-127 0 -209 -98l-143 125q63 82 153 125t197 43q158 0 247 -70t89 -194v-299q0 -41 20 -50q8 -8 39 -8v-155q-41 -21 -92 -21q-67 0 -108 29q-22 16 -39 53q-71 -88 -256 -88 q-127 0 -205 63t-78 168zM332 897q0 -55 84 -55q153 0 153 114v41q-25 -15 -135 -28q-102 -13 -102 -72z" />
<glyph unicode="&#xab;" horiz-adv-x="1173" d="M68 518l247 383h318l-254 -383l254 -383h-318zM549 518l248 383h317l-254 -383l254 -383h-317z" />
<glyph unicode="&#xac;" horiz-adv-x="1302" d="M96 793v264h1110v-635h-293v371h-817z" />
<glyph unicode="&#xad;" horiz-adv-x="901" d="M84 432v281h733v-281h-733z" />
<glyph unicode="&#xae;" horiz-adv-x="856" d="M59 1102q0 149 108.5 252.5t262.5 103.5q153 0 262 -103.5t109 -252.5t-110 -254t-261 -105q-153 0 -262 105t-109 254zM188 1102q0 -101 70 -168.5t172 -67.5t172 67.5t70 168.5t-70 168t-172 67t-172 -67t-70 -168zM305 946v322h144q47 0 79.5 -32.5t32.5 -78.5 q0 -65 -49 -92l76 -119h-113l-57 96h-17v-96h-96zM399 1116h39q15 0 24 10t9 25q0 12 -8.5 21.5t-20.5 9.5h-43v-66z" />
<glyph unicode="&#xaf;" horiz-adv-x="1124" d="M238 1186v198h649v-198h-649z" />
<glyph unicode="&#xb0;" horiz-adv-x="862" d="M82 1102q0 137 103 235.5t249 98.5q144 0 247 -98.5t103 -235.5q0 -141 -102.5 -239.5t-247.5 -98.5q-146 0 -249 98.5t-103 239.5zM303 1102q0 -55 38 -94t93 -39q54 0 91.5 39.5t37.5 93.5q0 52 -37.5 89.5t-91.5 37.5q-55 0 -93 -37.5t-38 -89.5z" />
<glyph unicode="&#xb1;" horiz-adv-x="1095" d="M98 0v264h903v-264h-903zM98 719v264h303v324h295v-324h305v-264h-305v-324h-295v324h-303z" />
<glyph unicode="&#xb2;" horiz-adv-x="694" d="M31 672l360 430q35 44 35 76q0 35 -19.5 56t-50.5 21q-34 0 -58 -27.5t-24 -68.5h-198q0 118 81 200.5t197 82.5q113 0 192 -73.5t79 -178.5q0 -93 -62 -162l-137 -156h221v-200h-616z" />
<glyph unicode="&#xb3;" horiz-adv-x="698" d="M23 809l167 113q49 -68 119 -68q46 0 78.5 24t32.5 64q0 86 -125 86q-75 0 -139 -12l159 213h-225v198h557l-203 -262q11 0 27 -4q77 -20 123.5 -81.5t46.5 -137.5q0 -120 -89 -201.5t-241 -81.5q-94 0 -169.5 41t-118.5 109z" />
<glyph unicode="&#xb4;" horiz-adv-x="1071" d="M365 1130l102 297h332l-205 -297h-229z" />
<glyph unicode="&#xb5;" horiz-adv-x="1185" d="M102 -477v1509h291v-581q0 -99 57 -157t150 -58q94 0 145.5 55t51.5 155v586h293v-616q0 -210 -107.5 -325.5t-300.5 -115.5q-188 0 -289 138v-590h-291z" />
<glyph unicode="&#xb6;" horiz-adv-x="1472" d="M41 934q0 134 68 247.5t184 179.5t252 66h907v-288h-139v-1139h-314v1139h-161v-1139h-316v444q-201 9 -341 150.5t-140 339.5z" />
<glyph unicode="&#xb7;" horiz-adv-x="448" d="M55 518q0 68 51 118t119 50t118 -49.5t50 -118.5q0 -70 -50 -119t-118 -49t-119 49t-51 119z" />
<glyph unicode="&#xb8;" horiz-adv-x="1064" d="M301 -391l61 127q48 -29 97 -29q33 0 54.5 17.5t21.5 46.5q0 41 -29 57t-88 16h-4l65 156h172l-45 -94h2q57 0 96 -41.5t39 -110.5q0 -98 -66 -149t-183 -51q-53 0 -107 16t-86 39z" />
<glyph unicode="&#xb9;" horiz-adv-x="499" d="M57 1229v198h338v-755h-207v557h-131z" />
<glyph unicode="&#xba;" horiz-adv-x="966" d="M59 1047q0 164 124 282.5t298 118.5t300 -119t126 -282q0 -166 -125.5 -285t-300.5 -119q-174 0 -298 119t-124 285zM332 1047q0 -59 44 -103.5t105 -44.5q60 0 105 44.5t45 103.5q0 56 -45.5 100.5t-104.5 44.5q-61 0 -105 -44t-44 -101z" />
<glyph unicode="&#xbb;" horiz-adv-x="1173" d="M66 135l251 383l-251 383h317l246 -383l-246 -383h-317zM547 135l252 383l-252 383h317l246 -383l-246 -383h-317z" />
<glyph unicode="&#xbc;" horiz-adv-x="1515" d="M72 1229v198h338v-755h-209v557h-129zM111 0l933 1427h277l-934 -1427h-276zM795 129l270 629h211l-201 -455h158v154h199v-457h-199v129h-438z" />
<glyph unicode="&#xbd;" horiz-adv-x="1507" d="M72 1229v198h338v-755h-209v557h-129zM84 0l934 1427h276l-934 -1427h-276zM834 0l360 430q35 44 35 76q0 35 -20.5 56.5t-51.5 21.5q-34 0 -58 -28t-24 -69h-196q0 118 81 200.5t195 82.5q113 0 191.5 -73t78.5 -179q0 -94 -59 -162l-139 -155h223v-201h-616z" />
<glyph unicode="&#xbe;" horiz-adv-x="1599" d="M29 809l168 113q49 -68 118 -68q46 0 78.5 24t32.5 64q0 86 -125 86q-75 0 -139 -12l160 213h-226v198h557l-202 -262q10 0 26 -4q77 -20 123.5 -81.5t46.5 -137.5q0 -120 -89 -201.5t-241 -81.5q-94 0 -169.5 41t-118.5 109zM205 0l934 1427h278l-934 -1427h-278z M879 129l268 629h211l-201 -455h160v154h196v-457h-196v129h-438z" />
<glyph unicode="&#xbf;" horiz-adv-x="903" d="M63 -111q0 127 57 205.5t204 153.5q34 17 50 26t36 23t28 28.5t8 32.5q0 64 -88 64q-89 0 -153 -39v238q97 43 211 43q147 0 237 -84t90 -218q0 -181 -217 -305q-6 -3 -24 -12.5t-24 -13t-20 -11.5t-19.5 -12t-16 -12t-15 -13t-11 -13.5t-9 -15.5t-4.5 -16.5t-2 -19.5 q0 -24 26.5 -46t84.5 -22q166 0 315 146v-324q-140 -108 -332 -108q-190 0 -301 94.5t-111 230.5zM291 891q0 66 49 112t117 46t116 -46t48 -112q0 -68 -48 -115t-116 -47t-117 47t-49 115z" />
<glyph unicode="&#xc0;" horiz-adv-x="1540" d="M27 0l745 1509l746 -1509h-340l-109 225h-596l-111 -225h-335zM481 1823h332l102 -297h-229zM592 496h358l-180 370z" />
<glyph unicode="&#xc1;" horiz-adv-x="1540" d="M27 0l745 1509l746 -1509h-340l-109 225h-596l-111 -225h-335zM592 496h358l-180 370zM629 1526l102 297h330l-205 -297h-227z" />
<glyph unicode="&#xc2;" horiz-adv-x="1540" d="M27 0l745 1509l746 -1509h-340l-109 225h-596l-111 -225h-335zM383 1556l389 318l389 -318h-274l-115 113l-115 -113h-274zM592 496h358l-180 370z" />
<glyph unicode="&#xc3;" horiz-adv-x="1540" d="M27 0l745 1509l746 -1509h-340l-109 225h-596l-111 -225h-335zM352 1559q18 120 87.5 194t181.5 74q57 0 112.5 -21.5t104 -43t88.5 -21.5q36 0 58 20t32 66l172 -29q-38 -278 -273 -278q-58 0 -114 21.5t-104.5 43t-88.5 21.5q-71 0 -84 -72zM592 496h358l-180 370z" />
<glyph unicode="&#xc4;" horiz-adv-x="1540" d="M27 0l745 1509l746 -1509h-340l-109 225h-596l-111 -225h-335zM352 1585q0 58 44.5 99.5t107.5 41.5q61 0 104 -41t43 -100q0 -60 -43.5 -102.5t-103.5 -42.5q-63 0 -107.5 42.5t-44.5 102.5zM592 496h358l-180 370zM893 1585q0 59 43 100t104 41q63 0 106.5 -40.5 t43.5 -100.5t-43.5 -102.5t-106.5 -42.5q-61 0 -104 42.5t-43 102.5z" />
<glyph unicode="&#xc5;" horiz-adv-x="1540" d="M27 0l639 1303q-64 28 -104 86t-40 129q0 97 73.5 166t176.5 69t175.5 -69t72.5 -166q0 -71 -39.5 -129t-103.5 -86l641 -1303h-340l-109 225h-596l-111 -225h-335zM592 496h358l-180 378zM692 1518q0 -32 24 -56t56 -24t55 24t23 56t-23 54.5t-55 22.5 q-33 0 -56.5 -22.5t-23.5 -54.5z" />
<glyph unicode="&#xc6;" horiz-adv-x="1929" d="M-70 0l1151 1427h738v-288h-504v-271h465v-274h-465v-305h522v-289h-833v238h-519l-190 -238h-365zM686 492h318v399z" />
<glyph unicode="&#xc7;" horiz-adv-x="1466" d="M76 713q0 157 61 294.5t164.5 234t245.5 152.5t299 56q170 0 319.5 -70.5t257.5 -195.5l-217 -185q-69 76 -162.5 119t-197.5 43q-191 0 -321 -128.5t-130 -319.5t130 -319t321 -128q105 0 199.5 43.5t162.5 120.5l217 -184q-102 -121 -243.5 -190.5t-304.5 -75.5h-3 l-32 -74h2q57 0 96 -41.5t39 -110.5q0 -98 -66.5 -149t-181.5 -51q-53 0 -106.5 16t-85.5 39l61 127q48 -29 96 -29q33 0 54.5 17.5t21.5 46.5q0 42 -29 57.5t-90 15.5h-2l60 146q-134 21 -251 83.5t-202 155.5t-133.5 218.5t-48.5 265.5z" />
<glyph unicode="&#xc8;" horiz-adv-x="1216" d="M129 473v954h979v-288h-662v-267h619v-282h-619v-103q0 -58 19 -99.5t50 -61.5t61 -28.5t63 -8.5h483v-289h-493q-249 0 -374.5 122t-125.5 351zM365 1823h301l108 -297h-219z" />
<glyph unicode="&#xc9;" horiz-adv-x="1216" d="M129 473v954h979v-288h-662v-267h619v-282h-619v-103q0 -58 19 -99.5t50 -61.5t61 -28.5t63 -8.5h483v-289h-493q-249 0 -374.5 122t-125.5 351zM485 1526l103 297h332l-205 -297h-230z" />
<glyph unicode="&#xca;" horiz-adv-x="1216" d="M129 473v954h979v-288h-662v-267h619v-282h-619v-103q0 -58 19 -99.5t50 -61.5t61 -28.5t63 -8.5h483v-289h-493q-249 0 -374.5 122t-125.5 351zM229 1556l392 318l391 -318h-275l-116 113l-115 -113h-277z" />
<glyph unicode="&#xcb;" horiz-adv-x="1216" d="M129 473v954h979v-288h-662v-267h619v-282h-619v-103q0 -58 19 -99.5t50 -61.5t61 -28.5t63 -8.5h483v-289h-493q-249 0 -374.5 122t-125.5 351zM256 1663q0 60 45 101.5t107 41.5q61 0 104 -41t43 -102q0 -58 -43.5 -99.5t-103.5 -41.5q-62 0 -107 41.5t-45 99.5z M684 1663q0 59 44.5 101t105.5 42q62 0 105.5 -41t43.5 -102q0 -58 -43.5 -99.5t-105.5 -41.5q-61 0 -105.5 41.5t-44.5 99.5z" />
<glyph unicode="&#xcc;" horiz-adv-x="620" d="M25 1823h329l103 -297h-230zM150 0v1427h317v-1427h-317z" />
<glyph unicode="&#xcd;" horiz-adv-x="620" d="M152 0v1427h317v-1427h-317zM164 1526l102 297h332l-205 -297h-229z" />
<glyph unicode="&#xce;" horiz-adv-x="620" d="M-80 1542l391 332l391 -332h-274l-117 123l-114 -123h-277zM152 0v1427h317v-1427h-317z" />
<glyph unicode="&#xcf;" horiz-adv-x="620" d="M-45 1663q0 60 43.5 101.5t105.5 41.5t106 -41t44 -102q0 -58 -44 -99.5t-106 -41.5t-105.5 41.5t-43.5 99.5zM152 0v1427h317v-1427h-317zM371 1663q0 60 43.5 101.5t103.5 41.5q62 0 106 -41t44 -102q0 -58 -44 -99.5t-106 -41.5q-60 0 -103.5 41.5t-43.5 99.5z" />
<glyph unicode="&#xd0;" horiz-adv-x="1536" d="M18 573v287h146v567h541q183 0 328 -53.5t238 -149.5t142 -226.5t49 -286.5q0 -158 -48.5 -288t-141.5 -224.5t-237.5 -146.5t-327.5 -52h-543v573h-146zM481 289h205q105 0 185.5 22t131 59t83 92t45 115t12.5 134q0 76 -12.5 137t-45 116.5t-83.5 93t-131.5 59.5 t-186.5 22h-203v-279h277v-287h-277v-284z" />
<glyph unicode="&#xd1;" horiz-adv-x="1556" d="M143 0v1483l959 -862v806h313v-1482l-958 860v-805h-314zM360 1559q18 120 87.5 194t179.5 74q58 0 114 -21.5t104.5 -43t88.5 -21.5q36 0 58 20t32 66l170 -29q-38 -278 -270 -278q-58 0 -115 21.5t-106 43t-89 21.5q-71 0 -84 -72z" />
<glyph unicode="&#xd2;" horiz-adv-x="1675" d="M76 711q0 152 60 289.5t162.5 236t244 156t297.5 57.5t297.5 -57.5t243 -156t161.5 -235.5t60 -290t-60 -290.5t-161.5 -236t-243 -156t-297.5 -57.5q-209 0 -384.5 97.5t-277.5 268t-102 374.5zM395 711q0 -191 128 -321t317 -130q185 0 313.5 131.5t128.5 319.5 q0 186 -128 318t-314 132q-188 0 -316.5 -131.5t-128.5 -318.5zM530 1823h330l105 -297h-232z" />
<glyph unicode="&#xd3;" horiz-adv-x="1675" d="M76 711q0 152 60 289.5t162.5 236t244 156t297.5 57.5t297.5 -57.5t243 -156t161.5 -235.5t60 -290t-60 -290.5t-161.5 -236t-243 -156t-297.5 -57.5q-209 0 -384.5 97.5t-277.5 268t-102 374.5zM395 711q0 -191 128 -321t317 -130q185 0 313.5 131.5t128.5 319.5 q0 186 -128 318t-314 132q-188 0 -316.5 -131.5t-128.5 -318.5zM725 1526l102 297h332l-205 -297h-229z" />
<glyph unicode="&#xd4;" horiz-adv-x="1675" d="M76 711q0 152 60 289.5t162.5 236t244 156t297.5 57.5t297.5 -57.5t243 -156t161.5 -235.5t60 -290t-60 -290.5t-161.5 -236t-243 -156t-297.5 -57.5q-209 0 -384.5 97.5t-277.5 268t-102 374.5zM395 711q0 -191 128 -321t317 -130q185 0 313.5 131.5t128.5 319.5 q0 186 -128 318t-314 132q-188 0 -316.5 -131.5t-128.5 -318.5zM459 1542l391 332l391 -332h-276l-115 123l-115 -123h-276z" />
<glyph unicode="&#xd5;" horiz-adv-x="1675" d="M76 711q0 152 60 289.5t162.5 236t244 156t297.5 57.5t297.5 -57.5t243 -156t161.5 -235.5t60 -290t-60 -290.5t-161.5 -236t-243 -156t-297.5 -57.5q-209 0 -384.5 97.5t-277.5 268t-102 374.5zM395 711q0 -191 128 -321t317 -130q185 0 313.5 131.5t128.5 319.5 q0 186 -128 318t-314 132q-188 0 -316.5 -131.5t-128.5 -318.5zM436 1559q16 120 85 194t179 74q58 0 114.5 -21.5t105 -43t88.5 -21.5q36 0 58 20t34 66l168 -29q-38 -278 -269 -278q-59 0 -116 21.5t-106 43t-89 21.5q-71 0 -84 -72z" />
<glyph unicode="&#xd6;" horiz-adv-x="1675" d="M76 711q0 152 60 289.5t162.5 236t244 156t297.5 57.5t297.5 -57.5t243 -156t161.5 -235.5t60 -290t-60 -290.5t-161.5 -236t-243 -156t-297.5 -57.5q-209 0 -384.5 97.5t-277.5 268t-102 374.5zM395 711q0 -191 128 -321t317 -130q185 0 313.5 131.5t128.5 319.5 q0 186 -128 318t-314 132q-188 0 -316.5 -131.5t-128.5 -318.5zM489 1651q0 60 43.5 102.5t106.5 42.5q61 0 104 -42.5t43 -102.5q0 -59 -43 -100.5t-104 -41.5q-63 0 -106.5 41.5t-43.5 100.5zM915 1651q0 60 44.5 102.5t107.5 42.5q60 0 103.5 -42.5t43.5 -102.5 q0 -58 -43.5 -100t-103.5 -42q-63 0 -107.5 41.5t-44.5 100.5z" />
<glyph unicode="&#xd7;" horiz-adv-x="964" d="M82 467l215 217l-215 215l182 186l217 -217l217 217l187 -186l-215 -215l215 -217l-187 -186l-217 217l-217 -217z" />
<glyph unicode="&#xd8;" horiz-adv-x="1675" d="M76 711q0 152 60 289.5t162.5 236t244 156t297.5 57.5q184 0 356 -86l131 168l211 -162l-129 -166q92 -100 142.5 -226.5t50.5 -266.5q0 -153 -60 -290.5t-161.5 -236t-243 -156t-297.5 -57.5q-174 0 -334 72l-125 -162l-209 162l117 152q-100 100 -156.5 233.5 t-56.5 282.5zM395 711q0 -158 88 -275l533 688q-85 37 -176 37q-188 0 -316.5 -131.5t-128.5 -318.5zM690 285q70 -25 150 -25q185 0 313.5 131.5t128.5 319.5q0 135 -72 245z" />
<glyph unicode="&#xd9;" horiz-adv-x="1472" d="M129 580v847h317v-815q0 -346 293 -346q136 0 212.5 83t76.5 263v815h318v-847q0 -148 -48 -265t-131.5 -189.5t-192.5 -110.5t-235 -38q-127 0 -236.5 38t-193.5 110.5t-132 189.5t-48 265zM446 1823h330l105 -297h-232z" />
<glyph unicode="&#xda;" horiz-adv-x="1472" d="M129 580v847h317v-815q0 -346 293 -346q136 0 212.5 83t76.5 263v815h318v-847q0 -148 -48 -265t-131.5 -189.5t-192.5 -110.5t-235 -38q-127 0 -236.5 38t-193.5 110.5t-132 189.5t-48 265zM614 1526l103 297h332l-205 -297h-230z" />
<glyph unicode="&#xdb;" horiz-adv-x="1472" d="M129 580v847h317v-815q0 -346 293 -346q136 0 212.5 83t76.5 263v815h318v-847q0 -148 -48 -265t-131.5 -189.5t-192.5 -110.5t-235 -38q-127 0 -236.5 38t-193.5 110.5t-132 189.5t-48 265zM348 1542l391 332l389 -332h-276l-113 123l-114 -123h-277z" />
<glyph unicode="&#xdc;" horiz-adv-x="1472" d="M129 580v847h317v-815q0 -346 293 -346q136 0 212.5 83t76.5 263v815h318v-847q0 -148 -48 -265t-131.5 -189.5t-192.5 -110.5t-235 -38q-127 0 -236.5 38t-193.5 110.5t-132 189.5t-48 265zM375 1651q0 60 44.5 102.5t104.5 42.5q62 0 106 -42.5t44 -102.5 q0 -58 -44 -100t-106 -42q-60 0 -104.5 42t-44.5 100zM801 1651q0 60 44.5 102.5t106.5 42.5q60 0 104 -42.5t44 -102.5q0 -58 -44 -100t-104 -42q-62 0 -106.5 42t-44.5 100z" />
<glyph unicode="&#xdd;" horiz-adv-x="1417" d="M27 1427h346l338 -591l340 591h344l-525 -895v-532h-317v532zM584 1526l102 297h332l-207 -297h-227z" />
<glyph unicode="&#xde;" horiz-adv-x="1140" d="M143 0v1427h318v-256h129q213 0 353 -133.5t140 -328.5q0 -194 -138.5 -326.5t-350.5 -132.5h-133v-250h-318zM461 537h129q81 0 130.5 48.5t49.5 125.5q0 76 -50 125t-132 49h-127v-348z" />
<glyph unicode="&#xdf;" horiz-adv-x="1236" d="M106 0v1075q0 162 119 272.5t295 110.5q173 0 293.5 -109t120.5 -264q0 -88 -49 -151l-2 -2q126 -45 209.5 -162t83.5 -274q0 -145 -67 -264.5t-187.5 -189t-270.5 -69.5q-74 0 -133 11v280q40 -12 105 -12q104 0 176.5 71.5t72.5 172.5q0 99 -72.5 169t-176.5 70h-2 q-45 0 -103 -14v203q64 7 98.5 42.5t34.5 92.5q0 48 -34.5 84.5t-84.5 36.5q-51 0 -84.5 -37.5t-33.5 -91.5v-1051h-308z" />
<glyph unicode="&#xe0;" d="M61 516q0 147 66.5 269.5t184 194t261.5 71.5q117 0 201.5 -43t106.5 -111v135h307v-1032h-307v135q-22 -67 -106.5 -110t-201.5 -43q-144 0 -261.5 71t-184 193t-66.5 270zM371 516q0 -108 75 -182t185 -74q111 0 189.5 74.5t78.5 181.5t-78.5 181.5t-189.5 74.5 q-110 0 -185 -74t-75 -182zM381 1427h332l102 -297h-229z" />
<glyph unicode="&#xe1;" d="M61 516q0 147 66.5 269.5t184 194t261.5 71.5q117 0 201.5 -43t106.5 -111v135h307v-1032h-307v135q-22 -67 -106.5 -110t-201.5 -43q-144 0 -261.5 71t-184 193t-66.5 270zM371 516q0 -108 75 -182t185 -74q111 0 189.5 74.5t78.5 181.5t-78.5 181.5t-189.5 74.5 q-110 0 -185 -74t-75 -182zM547 1130l102 297h332l-207 -297h-227z" />
<glyph unicode="&#xe2;" d="M61 516q0 147 66.5 269.5t184 194t261.5 71.5q117 0 201.5 -43t106.5 -111v135h307v-1032h-307v135q-22 -67 -106.5 -110t-201.5 -43q-144 0 -261.5 71t-184 193t-66.5 270zM297 1147l389 317l391 -317h-274l-117 110l-115 -110h-274zM371 516q0 -108 75 -182t185 -74 q111 0 189.5 74.5t78.5 181.5t-78.5 181.5t-189.5 74.5q-110 0 -185 -74t-75 -182z" />
<glyph unicode="&#xe3;" d="M61 516q0 147 66.5 269.5t184 194t261.5 71.5q117 0 201.5 -43t106.5 -111v135h307v-1032h-307v135q-22 -67 -106.5 -110t-201.5 -43q-144 0 -261.5 71t-184 193t-66.5 270zM250 1190q16 115 86 187.5t182 72.5q57 0 112.5 -22t104 -44t88.5 -22q70 0 90 86l172 -25 q-38 -274 -272 -274q-58 0 -114 22t-104.5 44t-88.5 22q-71 0 -84 -72zM371 516q0 -108 75 -182t185 -74q111 0 189.5 74.5t78.5 181.5t-78.5 181.5t-189.5 74.5q-110 0 -185 -74t-75 -182z" />
<glyph unicode="&#xe4;" d="M61 516q0 147 66.5 269.5t184 194t261.5 71.5q117 0 201.5 -43t106.5 -111v135h307v-1032h-307v135q-22 -67 -106.5 -110t-201.5 -43q-144 0 -261.5 71t-184 193t-66.5 270zM319 1278q0 60 44 101.5t104 41.5q62 0 105.5 -41t43.5 -102q0 -58 -43.5 -99.5t-105.5 -41.5 q-60 0 -104 41.5t-44 99.5zM371 516q0 -108 75 -182t185 -74q111 0 189.5 74.5t78.5 181.5t-78.5 181.5t-189.5 74.5q-110 0 -185 -74t-75 -182zM748 1278q0 60 43.5 101.5t103.5 41.5q62 0 105.5 -41t43.5 -102q0 -58 -43.5 -99.5t-105.5 -41.5q-60 0 -103.5 41.5 t-43.5 99.5z" />
<glyph unicode="&#xe5;" d="M61 516q0 147 66.5 269.5t184 194t261.5 71.5q117 0 201.5 -43t106.5 -111v135h307v-1032h-307v135q-22 -67 -106.5 -110t-201.5 -43q-144 0 -261.5 71t-184 193t-66.5 270zM371 516q0 -108 75 -182t185 -74q111 0 189.5 74.5t78.5 181.5t-78.5 181.5t-189.5 74.5 q-110 0 -185 -74t-75 -182zM432 1358q0 97 73.5 166t176.5 69t175.5 -69t72.5 -166q0 -98 -72.5 -168t-175.5 -70t-176.5 70t-73.5 168zM602 1358q0 -32 24 -55t56 -23t55 23t23 55t-23 55t-55 23t-56 -23t-24 -55z" />
<glyph unicode="&#xe6;" horiz-adv-x="1789" d="M63 291q0 162 107.5 254t333.5 92h55q103 0 143.5 18.5t40.5 61.5q0 90 -163 90q-166 0 -277 -127l-180 156q167 219 452 219q236 0 334 -144q133 146 334 146q107 0 199.5 -41.5t157 -113t101 -169.5t36.5 -209q0 -47 -6 -88h-719q5 -93 74 -146.5t186 -53.5 q130 0 225 100l178 -174q-171 -187 -409 -187q-236 0 -375 152q-130 -154 -422 -154q-188 0 -297 87t-109 231zM362 330q0 -99 152 -99q107 0 168 39.5t61 114.5v37v29q-22 -11 -155 -17h1h1q-32 -2 -44 -2.5t-40 -3t-40 -5.5t-33 -8t-30.5 -12.5t-20.5 -17.5t-15.5 -24 t-4.5 -31zM1018 641h414q-6 74 -59.5 123t-129.5 49q-87 0 -150.5 -49.5t-74.5 -122.5z" />
<glyph unicode="&#xe7;" horiz-adv-x="1099" d="M61 518q0 154 77 280t208 196.5t287 70.5q253 0 430 -193l-195 -192q-50 54 -104.5 80t-130.5 26q-111 0 -186.5 -76t-75.5 -192q0 -115 75.5 -190.5t186.5 -75.5q76 0 130.5 26t104.5 80l195 -192q-158 -175 -381 -191h-2l-31 -69h2q57 0 96 -41.5t39 -110.5 q0 -98 -66 -149t-181 -51q-53 0 -107 16t-86 39l62 127q48 -29 96 -29q33 0 54.5 17.5t21.5 46.5q0 42 -29.5 57.5t-89.5 15.5h-2l57 140q-197 36 -326 183.5t-129 350.5z" />
<glyph unicode="&#xe8;" horiz-adv-x="1204" d="M61 510v8q0 244 158.5 392.5t403.5 148.5q156 0 278 -70.5t187 -189.5t65 -264q0 -52 -4 -99h-778q5 -92 78 -146t194 -54q78 0 137.5 24t112.5 76l180 -172q-184 -189 -444 -189q-253 0 -410.5 146.5t-157.5 388.5zM326 1427h329l105 -297h-232zM375 635h469 q0 70 -65 120t-156 50q-100 0 -171 -49t-77 -121z" />
<glyph unicode="&#xe9;" horiz-adv-x="1204" d="M61 510v8q0 244 158.5 392.5t403.5 148.5q156 0 278 -70.5t187 -189.5t65 -264q0 -52 -4 -99h-778q5 -92 78 -146t194 -54q78 0 137.5 24t112.5 76l180 -172q-184 -189 -444 -189q-253 0 -410.5 146.5t-157.5 388.5zM375 635h469q0 70 -65 120t-156 50q-100 0 -171 -49 t-77 -121zM477 1130l103 297h331l-204 -297h-230z" />
<glyph unicode="&#xea;" horiz-adv-x="1204" d="M61 510v8q0 244 158.5 392.5t403.5 148.5q156 0 278 -70.5t187 -189.5t65 -264q0 -52 -4 -99h-778q5 -92 78 -146t194 -54q78 0 137.5 24t112.5 76l180 -172q-184 -189 -444 -189q-253 0 -410.5 146.5t-157.5 388.5zM233 1147l392 317l389 -317h-273l-116 110l-115 -110 h-277zM375 635h469q0 70 -65 120t-156 50q-100 0 -171 -49t-77 -121z" />
<glyph unicode="&#xeb;" horiz-adv-x="1204" d="M61 510v8q0 244 158.5 392.5t403.5 148.5q156 0 278 -70.5t187 -189.5t65 -264q0 -52 -4 -99h-778q5 -92 78 -146t194 -54q78 0 137.5 24t112.5 76l180 -172q-184 -189 -444 -189q-253 0 -410.5 146.5t-157.5 388.5zM258 1278q0 60 45 101.5t107 41.5q61 0 104 -41 t43 -102q0 -58 -43.5 -99.5t-103.5 -41.5q-62 0 -107 41.5t-45 99.5zM375 635h469q0 70 -65 120t-156 50q-100 0 -171 -49t-77 -121zM686 1278q0 59 44.5 101t105.5 42q62 0 105.5 -41t43.5 -102q0 -58 -43.5 -99.5t-105.5 -41.5q-61 0 -105.5 41.5t-44.5 99.5z" />
<glyph unicode="&#xec;" horiz-adv-x="520" d="M-33 1427h332l94 -297h-229zM106 0v1032h310v-1032h-310z" />
<glyph unicode="&#xed;" horiz-adv-x="520" d="M109 0v1032h309v-1032h-309zM113 1130l94 297h332l-197 -297h-229z" />
<glyph unicode="&#xee;" horiz-adv-x="610" d="M-39 1147l344 317l346 -317h-264l-82 119l-80 -119h-264zM152 0v1032h309v-1032h-309z" />
<glyph unicode="&#xef;" horiz-adv-x="589" d="M-27 1282q0 58 43 98.5t103 40.5q59 0 101 -40.5t42 -98.5q0 -57 -42 -97t-101 -40q-60 0 -103 40t-43 97zM143 0v1032h308v-1032h-308zM328 1282q0 58 42.5 98.5t102.5 40.5q59 0 101 -40.5t42 -98.5q0 -57 -42 -97t-101 -40q-60 0 -102.5 40t-42.5 97z" />
<glyph unicode="&#xf0;" horiz-adv-x="1120" d="M61 453q0 192 136 325t331 133q76 0 136.5 -24t93.5 -66q-32 71 -80 134.5t-98 97.5l-117 -119l-178 156l94 102q-89 46 -213 76l82 241q162 -35 307 -123l139 148l178 -160l-122 -129q202 -180 274 -424q39 -136 39 -262q0 -269 -140 -425.5t-374 -156.5 q-132 0 -244.5 63t-178 172.5t-65.5 240.5zM362 453q0 -82 57.5 -139.5t143.5 -57.5q84 0 142.5 57.5t58.5 139.5t-58 138t-143 56q-86 0 -143.5 -56t-57.5 -138z" />
<glyph unicode="&#xf1;" horiz-adv-x="1204" d="M106 0v1032h310v-129q33 68 113.5 110t185.5 42q190 0 293.5 -113.5t103.5 -314.5v-627h-309v590q0 89 -48 140.5t-139 51.5q-88 0 -144 -56.5t-56 -145.5v-580h-310zM199 1190q16 115 85.5 187.5t180.5 72.5q57 0 112.5 -22t104 -44t88.5 -22q36 0 58 20.5t34 65.5 l170 -25q-38 -274 -270 -274q-59 0 -115.5 22t-105 44t-88.5 22q-71 0 -84 -72z" />
<glyph unicode="&#xf2;" horiz-adv-x="1269" d="M61 516q0 150 77 276t209.5 198.5t289.5 72.5q156 0 288 -72.5t208.5 -198.5t76.5 -276t-76.5 -276t-208.5 -198.5t-288 -72.5q-157 0 -289.5 72.5t-209.5 198.5t-77 276zM334 1427h332l102 -297h-229zM371 516q0 -113 76.5 -190.5t189.5 -77.5q111 0 188.5 78t77.5 190 q0 110 -78 189t-188 79q-113 0 -189.5 -78.5t-76.5 -189.5z" />
<glyph unicode="&#xf3;" horiz-adv-x="1269" d="M61 516q0 150 77 276t209.5 198.5t289.5 72.5q156 0 288 -72.5t208.5 -198.5t76.5 -276t-76.5 -276t-208.5 -198.5t-288 -72.5q-157 0 -289.5 72.5t-209.5 198.5t-77 276zM371 516q0 -113 76.5 -190.5t189.5 -77.5q111 0 188.5 78t77.5 190q0 110 -78 189t-188 79 q-113 0 -189.5 -78.5t-76.5 -189.5zM512 1130l102 297h332l-205 -297h-229z" />
<glyph unicode="&#xf4;" horiz-adv-x="1269" d="M61 516q0 150 77 276t209.5 198.5t289.5 72.5q156 0 288 -72.5t208.5 -198.5t76.5 -276t-76.5 -276t-208.5 -198.5t-288 -72.5q-157 0 -289.5 72.5t-209.5 198.5t-77 276zM246 1147l391 317l389 -317h-276l-113 110l-115 -110h-276zM371 516q0 -113 76.5 -190.5 t189.5 -77.5q111 0 188.5 78t77.5 190q0 110 -78 189t-188 79q-113 0 -189.5 -78.5t-76.5 -189.5z" />
<glyph unicode="&#xf5;" horiz-adv-x="1269" d="M61 516q0 150 77 276t209.5 198.5t289.5 72.5q156 0 288 -72.5t208.5 -198.5t76.5 -276t-76.5 -276t-208.5 -198.5t-288 -72.5q-157 0 -289.5 72.5t-209.5 198.5t-77 276zM215 1190q18 116 87 188t179 72q58 0 114 -22t104.5 -44t88.5 -22q71 0 91 86l170 -25 q-38 -274 -271 -274q-58 0 -114 22t-105 44t-90 22q-71 0 -84 -72zM371 516q0 -113 76.5 -190.5t189.5 -77.5q111 0 188.5 78t77.5 190q0 110 -78 189t-188 79q-113 0 -189.5 -78.5t-76.5 -189.5z" />
<glyph unicode="&#xf6;" horiz-adv-x="1269" d="M61 516q0 150 77 276t209.5 198.5t289.5 72.5q156 0 288 -72.5t208.5 -198.5t76.5 -276t-76.5 -276t-208.5 -198.5t-288 -72.5q-157 0 -289.5 72.5t-209.5 198.5t-77 276zM270 1278q0 60 44.5 101.5t107.5 41.5q61 0 104 -41t43 -102q0 -58 -43.5 -99.5t-103.5 -41.5 q-63 0 -107.5 41.5t-44.5 99.5zM371 516q0 -113 76.5 -190.5t189.5 -77.5q111 0 188.5 78t77.5 190q0 110 -78 189t-188 79q-113 0 -189.5 -78.5t-76.5 -189.5zM698 1278q0 60 44 101.5t106 41.5t105.5 -41t43.5 -102q0 -58 -43.5 -99.5t-105.5 -41.5t-106 41.5t-44 99.5z " />
<glyph unicode="&#xf7;" horiz-adv-x="1107" d="M92 582v264h928v-264h-928zM387 338q0 70 49.5 119t118.5 49q70 0 120 -49t50 -119t-50 -119t-120 -49q-69 0 -118.5 49t-49.5 119zM387 1090q0 70 49.5 118.5t118.5 48.5q70 0 120 -48.5t50 -118.5t-50 -119t-120 -49q-69 0 -118.5 49t-49.5 119z" />
<glyph unicode="&#xf8;" horiz-adv-x="1269" d="M61 516q0 150 77 276t209.5 198.5t289.5 72.5q121 0 235 -49l89 114l172 -129l-82 -106q159 -159 159 -377q0 -150 -76.5 -276t-208.5 -198.5t-288 -72.5q-126 0 -240 49l-94 -127l-174 129l88 117q-156 159 -156 379zM367 516q0 -78 41 -137l286 387q-22 14 -57 14 q-115 0 -192.5 -77t-77.5 -187zM575 264q24 -12 62 -12q113 0 191.5 77t78.5 187q0 73 -43 135z" />
<glyph unicode="&#xf9;" horiz-adv-x="1187" d="M96 416v616h312v-590q0 -97 52 -142.5t134 -45.5t134 45.5t52 142.5v590h312v-616q0 -110 -40.5 -196.5t-110 -140t-158 -81t-189.5 -27.5t-189.5 27.5t-158 81t-110 140t-40.5 196.5zM297 1427h332l102 -297h-229z" />
<glyph unicode="&#xfa;" horiz-adv-x="1187" d="M96 416v616h312v-590q0 -97 52 -142.5t134 -45.5t134 45.5t52 142.5v590h312v-616q0 -110 -40.5 -196.5t-110 -140t-158 -81t-189.5 -27.5t-189.5 27.5t-158 81t-110 140t-40.5 196.5zM449 1130l104 297h332l-205 -297h-231z" />
<glyph unicode="&#xfb;" horiz-adv-x="1187" d="M96 416v616h312v-590q0 -97 52 -142.5t134 -45.5t134 45.5t52 142.5v590h312v-616q0 -110 -40.5 -196.5t-110 -140t-158 -81t-189.5 -27.5t-189.5 27.5t-158 81t-110 140t-40.5 196.5zM207 1147l389 317l389 -317h-274l-115 110l-115 -110h-274z" />
<glyph unicode="&#xfc;" horiz-adv-x="1187" d="M96 416v616h312v-590q0 -97 52 -142.5t134 -45.5t134 45.5t52 142.5v590h312v-616q0 -110 -40.5 -196.5t-110 -140t-158 -81t-189.5 -27.5t-189.5 27.5t-158 81t-110 140t-40.5 196.5zM233 1278q0 60 44 101.5t104 41.5q62 0 105.5 -41t43.5 -102q0 -58 -43.5 -99.5 t-105.5 -41.5q-60 0 -104 41.5t-44 99.5zM662 1278q0 60 43.5 101.5t103.5 41.5q62 0 105.5 -41t43.5 -102q0 -58 -43.5 -99.5t-105.5 -41.5q-60 0 -103.5 41.5t-43.5 99.5z" />
<glyph unicode="&#xfd;" horiz-adv-x="1200" d="M20 1032h316l278 -715l254 715h314l-459 -1196q-52 -130 -119 -190q-103 -90 -278 -90h-138v264h117q64 0 98 22q24 16 43 64l17 45zM469 1130l102 297h332l-207 -297h-227z" />
<glyph unicode="&#xfe;" d="M106 -395v1822h310v-530q22 67 106 110.5t199 43.5q144 0 261.5 -71t184 -193.5t66.5 -270.5q0 -224 -147 -379t-365 -155q-116 0 -199.5 42.5t-105.5 110.5v-530h-310zM397 516q0 -107 78 -181.5t191 -74.5q109 0 184.5 74.5t75.5 181.5t-75.5 181.5t-184.5 74.5 q-113 0 -191 -74.5t-78 -181.5z" />
<glyph unicode="&#xff;" horiz-adv-x="1200" d="M20 1032h316l278 -715l254 715h314l-459 -1196q-52 -130 -119 -190q-103 -90 -278 -90h-138v264h117q64 0 98 22q24 16 43 64l17 45zM252 1278q0 60 43.5 101.5t103.5 41.5q62 0 107 -41t45 -102q0 -58 -45 -99.5t-107 -41.5q-60 0 -103.5 41.5t-43.5 99.5zM680 1278 q0 60 42.5 101.5t104.5 41.5t106 -41t44 -102q0 -58 -44 -99.5t-106 -41.5q-61 0 -104 41t-43 100z" />
<glyph unicode="&#x152;" horiz-adv-x="2197" d="M76 713q0 203 101.5 373t276 267t382.5 97q134 0 247.5 -47t184.5 -129v153h821v-286h-506v-277h467v-264h-467v-317h520v-283h-835v154q-71 -84 -184.5 -130.5t-247.5 -46.5q-208 0 -382.5 97t-276 266.5t-101.5 372.5zM401 713q0 -190 131 -320.5t320 -130.5 q188 0 320.5 132t132.5 319q0 186 -132 318t-321 132q-190 0 -320.5 -131t-130.5 -319z" />
<glyph unicode="&#x153;" horiz-adv-x="2017" d="M61 516q0 150 77 276t209.5 198.5t289.5 72.5q123 0 226 -49.5t171 -136.5q67 87 173.5 136.5t242.5 49.5q151 0 271 -72t186.5 -195.5t66.5 -273.5q0 -45 -4 -88h-786q6 -94 77.5 -147.5t192.5 -53.5q158 0 260 99l182 -176q-187 -187 -456 -187q-134 0 -239 45.5 t-169 132.5q-69 -85 -170.5 -131.5t-224.5 -46.5q-157 0 -289.5 72.5t-209.5 198.5t-77 276zM371 516q0 -113 76.5 -190.5t189.5 -77.5q111 0 188.5 78t77.5 190q0 110 -78 189t-188 79q-113 0 -189.5 -78.5t-76.5 -189.5zM1190 633h475q-9 77 -76 128.5t-159 51.5 q-93 0 -160.5 -51t-79.5 -129z" />
<glyph unicode="&#x178;" horiz-adv-x="1417" d="M27 1427h346l338 -591l340 591h344l-525 -895v-532h-317v532zM346 1651q0 59 44.5 102t105.5 43q60 0 103.5 -42.5t43.5 -102.5t-43.5 -102t-103.5 -42q-62 0 -106 42t-44 102zM774 1651q0 59 44 102t104 43q62 0 105.5 -42.5t43.5 -102.5t-43.5 -102t-105.5 -42 q-60 0 -104 42t-44 102z" />
<glyph unicode="&#x2c6;" horiz-adv-x="1118" d="M170 1147l389 317l391 -317h-274l-117 110l-115 -110h-274z" />
<glyph unicode="&#x2dc;" horiz-adv-x="1099" d="M135 1202q16 117 85.5 189.5t180.5 72.5q57 0 113 -22t105 -44t90 -22q67 0 92 86l168 -24q-38 -275 -271 -275q-58 0 -114.5 21.5t-105.5 43t-89 21.5q-69 0 -84 -71z" />
<glyph unicode="&#x2000;" horiz-adv-x="937" />
<glyph unicode="&#x2001;" horiz-adv-x="1874" />
<glyph unicode="&#x2002;" horiz-adv-x="937" />
<glyph unicode="&#x2003;" horiz-adv-x="1874" />
<glyph unicode="&#x2004;" horiz-adv-x="624" />
<glyph unicode="&#x2005;" horiz-adv-x="468" />
<glyph unicode="&#x2006;" horiz-adv-x="312" />
<glyph unicode="&#x2007;" horiz-adv-x="312" />
<glyph unicode="&#x2008;" horiz-adv-x="234" />
<glyph unicode="&#x2009;" horiz-adv-x="374" />
<glyph unicode="&#x200a;" horiz-adv-x="104" />
<glyph unicode="&#x2010;" horiz-adv-x="901" d="M84 432v281h733v-281h-733z" />
<glyph unicode="&#x2011;" horiz-adv-x="901" d="M84 432v281h733v-281h-733z" />
<glyph unicode="&#x2012;" horiz-adv-x="901" d="M84 432v281h733v-281h-733z" />
<glyph unicode="&#x2013;" horiz-adv-x="1124" d="M82 432v281h962v-281h-962z" />
<glyph unicode="&#x2014;" horiz-adv-x="1507" d="M82 432v281h1343v-281h-1343z" />
<glyph unicode="&#x2018;" horiz-adv-x="536" d="M37 930l262 497h225l-182 -497h-305z" />
<glyph unicode="&#x2019;" horiz-adv-x="542" d="M33 930l182 497h305l-262 -497h-225z" />
<glyph unicode="&#x201a;" horiz-adv-x="501" d="M-51 -262l180 489h303l-258 -489h-225z" />
<glyph unicode="&#x201c;" horiz-adv-x="913" d="M37 930l262 497h225l-182 -497h-305zM416 930l260 497h227l-184 -497h-303z" />
<glyph unicode="&#x201d;" horiz-adv-x="919" d="M33 930l182 497h305l-262 -497h-225zM412 930l182 497h305l-262 -497h-225z" />
<glyph unicode="&#x201e;" horiz-adv-x="880" d="M-51 -262l180 489h303l-258 -489h-225zM326 -262l180 489h305l-258 -489h-227z" />
<glyph unicode="&#x2022;" horiz-adv-x="745" d="M129 516q0 102 72.5 174t171.5 72q100 0 172.5 -72t72.5 -174q0 -103 -71 -174.5t-174 -71.5q-98 0 -171 73t-73 173z" />
<glyph unicode="&#x2026;" horiz-adv-x="1337" d="M55 147q0 70 51 119t119 49t118 -49t50 -119q0 -68 -50 -116.5t-118 -48.5t-119 48.5t-51 116.5zM502 147q0 70 50 119t118 49q71 0 120.5 -49t49.5 -119q0 -69 -49.5 -117t-120.5 -48q-68 0 -118 48.5t-50 116.5zM950 147q0 70 49.5 119t118.5 49q68 0 119 -49t51 -119 q0 -68 -51 -116.5t-119 -48.5q-69 0 -118.5 48t-49.5 117z" />
<glyph unicode="&#x202f;" horiz-adv-x="374" />
<glyph unicode="&#x2039;" horiz-adv-x="694" d="M68 518l247 383h318l-254 -383l254 -383h-318z" />
<glyph unicode="&#x203a;" horiz-adv-x="694" d="M66 135l251 383l-251 383h317l246 -383l-246 -383h-317z" />
<glyph unicode="&#x205f;" horiz-adv-x="468" />
<glyph unicode="&#x20ac;" horiz-adv-x="1566" d="M14 510l70 152h129q-2 23 -2 51q0 53 4 80h-162l68 151h125q71 226 260 366t428 140q158 0 295.5 -68.5t238.5 -189.5l-217 -184q-61 73 -143.5 114t-173.5 41q-112 0 -202 -58.5t-142 -160.5h487l-67 -151h-475q-7 -29 -7 -80q0 -28 2 -51h422l-69 -152h-310 q48 -114 144 -181t217 -67q94 0 177.5 42.5t143.5 117.5l220 -184q-102 -123 -242 -192t-299 -69q-249 0 -441 147t-255 386h-224z" />
<glyph unicode="&#x2122;" horiz-adv-x="1863" d="M53 1163v264h717v-264h-215v-495h-283v495h-219zM872 668v759h168l293 -327l293 327h164v-759h-264v325l-193 -215l-196 215v-325h-265z" />
<glyph unicode="&#x25fc;" horiz-adv-x="1034" d="M0 0v1034h1034v-1034h-1034z" />
</font>
</defs>
</svg>
